<svg width="583" height="365" viewBox="0 0 583 365" fill="none" xmlns="http://www.w3.org/2000/svg">
<rect x="2.5" y="199.5" width="163" height="163" rx="12.5" stroke="white" stroke-width="5"/>
<rect x="202.5" y="2.5" width="163" height="163" rx="12.5" stroke="white" stroke-width="5"/>
<rect x="202.5" y="199.5" width="163" height="163" rx="12.5" stroke="white" stroke-width="5"/>
<rect x="402.5" y="199.5" width="163" height="163" rx="12.5" stroke="white" stroke-width="5"/>
<path d="M258.341 124L238.977 54.1818H250.057L263.659 108.25H264.307L278.455 54.1818H289.432L303.58 108.284H304.227L317.795 54.1818H328.909L309.511 124H298.909L284.216 71.7045H283.67L268.977 124H258.341Z" fill="white"/>
<path d="M477.273 315H454.67V245.182H477.989C484.83 245.182 490.705 246.58 495.614 249.375C500.523 252.148 504.284 256.136 506.898 261.341C509.534 266.523 510.852 272.739 510.852 279.989C510.852 287.261 509.523 293.511 506.864 298.739C504.227 303.966 500.409 307.989 495.409 310.807C490.409 313.602 484.364 315 477.273 315ZM465.205 305.795H476.693C482.011 305.795 486.432 304.795 489.955 302.795C493.477 300.773 496.114 297.852 497.864 294.034C499.614 290.193 500.489 285.511 500.489 279.989C500.489 274.511 499.614 269.864 497.864 266.045C496.136 262.227 493.557 259.33 490.125 257.352C486.693 255.375 482.432 254.386 477.341 254.386H465.205V305.795Z" fill="white"/>
<path d="M295.75 263.523C295.386 260.295 293.886 257.795 291.25 256.023C288.614 254.227 285.295 253.33 281.295 253.33C278.432 253.33 275.955 253.784 273.864 254.693C271.773 255.58 270.148 256.807 268.989 258.375C267.852 259.92 267.284 261.682 267.284 263.659C267.284 265.318 267.67 266.75 268.443 267.955C269.239 269.159 270.273 270.17 271.545 270.989C272.841 271.784 274.227 272.455 275.705 273C277.182 273.523 278.602 273.955 279.966 274.295L286.784 276.068C289.011 276.614 291.295 277.352 293.636 278.284C295.977 279.216 298.148 280.443 300.148 281.966C302.148 283.489 303.761 285.375 304.989 287.625C306.239 289.875 306.864 292.568 306.864 295.705C306.864 299.659 305.841 303.17 303.795 306.239C301.773 309.307 298.83 311.727 294.966 313.5C291.125 315.273 286.477 316.159 281.023 316.159C275.795 316.159 271.273 315.33 267.455 313.67C263.636 312.011 260.648 309.659 258.489 306.614C256.33 303.545 255.136 299.909 254.909 295.705H265.477C265.682 298.227 266.5 300.33 267.932 302.011C269.386 303.67 271.239 304.909 273.489 305.727C275.761 306.523 278.25 306.92 280.955 306.92C283.932 306.92 286.58 306.455 288.898 305.523C291.239 304.568 293.08 303.25 294.42 301.568C295.761 299.864 296.432 297.875 296.432 295.602C296.432 293.534 295.841 291.841 294.659 290.523C293.5 289.205 291.92 288.114 289.92 287.25C287.943 286.386 285.705 285.625 283.205 284.966L274.955 282.716C269.364 281.193 264.932 278.955 261.659 276C258.409 273.045 256.784 269.136 256.784 264.273C256.784 260.25 257.875 256.739 260.057 253.739C262.239 250.739 265.193 248.409 268.92 246.75C272.648 245.068 276.852 244.227 281.534 244.227C286.261 244.227 290.432 245.057 294.045 246.716C297.682 248.375 300.545 250.659 302.636 253.568C304.727 256.455 305.818 259.773 305.909 263.523H295.75Z" fill="white"/>
<path d="M63.5682 315H52.3864L77.5114 245.182H89.6818L114.807 315H103.625L83.8864 257.864H83.3409L63.5682 315ZM65.4432 287.659H101.716V296.523H65.4432V287.659Z" fill="white"/>
</svg>
